<?xml version="1.0" encoding="utf-8"?>
<!-- Generator: Adobe Illustrator 20.1.0, SVG Export Plug-In . SVG Version: 6.00 Build 0)  -->
<svg version="1.1" id="Layer_1" xmlns="http://www.w3.org/2000/svg" xmlns:xlink="http://www.w3.org/1999/xlink" x="0px" y="0px"
	 viewBox="0 0 13 13" style="enable-background:new 0 0 13 13;" xml:space="preserve">
<style type="text/css">
        .st0{opacity:0.7;}
	.st1{clip-path:url(#SVGID_2_);}
	.st2{clip-path:url(#SVGID_4_);fill:#red;}
	.st0:hover{opacity:1;}
	
</style>
<g class="st0">
	<defs>
		<path id="SVGID_1_" class="st0" d="M8.8,3.8v2.6L5.4,2.9H8C8.4,2.9,8.8,3.3,8.8,3.8z M11.1,3.6l-2,1.7v1.4l2.2,2.2h0.4V3.6H11.1z
			 M8.7,8L3.9,3.2L2.4,1.6L1.8,2.3l0.9,0.9h0C2.1,3.2,1.8,3.5,1.8,4v5.3c0,0.5,0.4,0.8,0.8,0.8h5.3c0.5,0,0.8-0.4,0.8-0.8v0l2.3,2.3
			l0.7-0.7L8.7,8z"/>
	</defs>
	<clipPath id="SVGID_2_">
		<use xlink:href="#SVGID_1_"  style="overflow:visible;"/>
	</clipPath>
	<g class="st1">
		<defs>
			<rect id="SVGID_3_" x="1.8" y="1.6" width="10.1" height="10"/>
		</defs>
		<clipPath id="SVGID_4_">
			<use xlink:href="#SVGID_3_"  style="overflow:visible;"/>
		</clipPath>
		<rect x="-3.2" y="-3.4" class="st2" width="20" height="20"/>
	</g>
</g>
</svg>
