<?xml version="1.0" standalone="no"?>
<!DOCTYPE svg PUBLIC "-//W3C//DTD SVG 1.1//EN" "http://www.w3.org/Graphics/SVG/1.1/DTD/svg11.dtd">
<svg width="100%" height="100%" viewBox="0 0 22 22" version="1.1" xmlns="http://www.w3.org/2000/svg" xmlns:xlink="http://www.w3.org/1999/xlink" xml:space="preserve" style="fill-rule:evenodd;clip-rule:evenodd;stroke-linejoin:round;stroke-miterlimit:1.41421;">
    <g id="Layer1">
        <path d="M0.547836,10.6801C1.57461,8.1489 5.85153,6.26299 10.9781,6.2798C16.1047,6.29661 20.3942,8.21062 21.4375,10.7486C22.1129,12.3917 21.9779,13.7087 21.9779,13.7087C21.9798,14.277 21.5206,14.7362 20.9523,14.7343L16.1505,14.7186C15.5823,14.7167 15.1201,14.2545 15.1182,13.6863L15.1115,11.6283C15.1096,11.0685 15.5552,10.6146 16.1117,10.603L16.1095,10.6027C14.9722,8.76268 13.6734,8.95474 10.9868,8.94593C8.30034,8.93712 7.08838,8.73685 5.96317,10.5694L5.93647,10.5731C6.46323,10.62 6.87798,11.063 6.87974,11.6013L6.88654,13.6593C6.88836,14.2275 6.42918,14.6867 5.86098,14.6848L1.05916,14.6691C0.490859,14.6672 0.028662,14.205 0.0267985,13.6367C0.0267985,13.6367 -0.13239,12.357 0.547836,10.6801Z" style="fill:red;"/>
    </g>
</svg>
