<?xml version="1.0" standalone="no"?>
<!DOCTYPE svg PUBLIC "-//W3C//DTD SVG 1.1//EN" "http://www.w3.org/Graphics/SVG/1.1/DTD/svg11.dtd">
<svg width="48px" height="48px" version="1.1" xmlns="http://www.w3.org/2000/svg" xmlns:xlink="http://www.w3.org/1999/xlink" xml:space="preserve" style="fill-rule:evenodd;clip-rule:evenodd;stroke-linejoin:round;stroke-miterlimit:1.41421;">
    <g>
        <path d="M24,28C27.31,28 29.98,25.31 29.98,22L30,10C30,6.68 27.32,4 24,4C20.69,4 18,6.68 18,10L18,22C18,25.31 20.69,28 24,28ZM34.6,22C34.6,28 29.53,32.2 24,32.2C18.48,32.2 13.4,28 13.4,22L10,22C10,28.83 15.44,34.47 22,35.44L22,42L26,42L26,35.44C32.56,34.47 38,28.83 38,22Z" style="fill:#00FF00;fill-rule:nonzero;"/>
    </g>
</svg>
