<?xml version="1.0" encoding="utf-8"?>
<!-- Generator: Adobe Illustrator 20.1.0, SVG Export Plug-In . SVG Version: 6.00 Build 0)  -->
<svg version="1.1" id="Layer_1" xmlns="http://www.w3.org/2000/svg" xmlns:xlink="http://www.w3.org/1999/xlink" x="0px" y="0px"
	 viewBox="0 0 13 13" style="enable-background:new 0 0 13 13;" xml:space="preserve">
<style type="text/css">
	.st0{opacity:0.7;}
	.st1{clip-path:url(#SVGID_2_);}
	.st2{clip-path:url(#SVGID_4_);fill:#red;}
	.st0:hover{opacity:1;}
	
</style>
<g class="st0">
	<defs>
		<path id="SVGID_1_" class="st0" d="M10.9,6.1H9.8c0,0.5-0.1,0.9-0.3,1.3l0.8,0.8C10.7,7.6,10.9,6.9,10.9,6.1z M8.3,6.2
			c0,0,0-0.1,0-0.1V2.3c0-1-0.8-1.9-1.9-1.9S4.5,1.3,4.5,2.3v0.1L8.3,6.2z M1.6,1L0.8,1.9l3.8,3.8v0.5c0,1,0.8,1.9,1.9,1.9
			c0.1,0,0.3,0,0.4,0l1,1C7.5,9.2,7,9.3,6.4,9.3C4.7,9.3,3.1,8,3.1,6.1H2c0,2.2,1.7,3.9,3.8,4.2v2.1h1.3v-2.1
			c0.6-0.1,1.1-0.3,1.6-0.6l2.6,2.6l0.8-0.8L1.6,1z"/>
	</defs>
	<use xlink:href="#SVGID_1_"  style="overflow:visible;fill-rule:evenodd;clip-rule:evenodd;fill:#red;"/>
	<clipPath id="SVGID_2_">
		<use xlink:href="#SVGID_1_"  style="overflow:visible;"/>
	</clipPath>
	<g class="st1">
		<defs>
			<rect id="SVGID_3_" x="0.6" y="0.4" width="11.6" height="12"/>
		</defs>
		<use xlink:href="#SVGID_3_"  style="overflow:visible;fill:#red;"/>
		<clipPath id="SVGID_4_">
			<use xlink:href="#SVGID_3_"  style="overflow:visible;"/>
		</clipPath>
		<rect x="0.1" y="-0.3" class="st2" width="12.7" height="13.3"/>
	</g>
</g>
</svg>
